<?xml version="1.0" encoding="utf-8"?>
<!-- Generator: Adobe Illustrator 27.9.0, SVG Export Plug-In . SVG Version: 6.00 Build 0)  -->
<svg version="1.1" id="Layer_1" xmlns="http://www.w3.org/2000/svg" xmlns:xlink="http://www.w3.org/1999/xlink" x="0px" y="0px"
	 viewBox="0 0 128 128" style="enable-background:new 0 0 128 128;" xml:space="preserve">
<style type="text/css">
	.st0{fill-rule:evenodd;clip-rule:evenodd;fill:#99B8C6;}
	.st1{fill:#206982;}
</style>
<g>
	<rect x="5.2" y="5.1" class="st0" width="117.7" height="117.7"/>
	<path class="st1" d="M124.9,124.8H3.2V3.1h121.7C124.9,3.1,124.9,124.8,124.9,124.8z M7.2,120.8h113.7V7.1H7.2V120.8z"/>
</g>
<g>
	<path class="st1" d="M112.2,124.2H30.7V79.9h-2.6c-3.3,0-6.1-1.4-8-4.1l-1.5-2.1l52.8-45.3l52.8,45.3l-1.5,2.1
		c-1.9,2.7-4.6,4.1-8,4.1h-2.6L112.2,124.2L112.2,124.2z M35.1,119.6h72.7V75.2h7c1.2,0,2.3-0.3,3.1-0.9L71.5,34.4L24.9,74.3
		c0.9,0.6,1.9,0.9,3.1,0.9h7L35.1,119.6L35.1,119.6z"/>
	<path class="st1" d="M68.6,62.2h5.6v4.1c2.8,0.3,5.3,1.2,7.4,2.8l-1.9,7.1c-2.4-2.1-4.7-3-8.1-3c-2.9,0-5,1.1-5,2.8
		c0,2.3,2.3,3.5,6.2,5.7c6.1,3.5,10.4,6.8,10.4,12.8c0,6.6-3.4,10.1-8.9,11.1v4.3h-5.6v-4.1c-3.1-0.4-6.5-1.6-8.9-3.5l2.5-6.7
		c2.5,2,5.5,3.5,8.7,3.5c3.7,0,5.3-1.9,5.3-4.8c0-2.6-2.2-3.8-5.5-5.8c-4.1-2.5-10.6-4.6-10.6-12.1c0-5.4,3.8-8.8,8.4-9.8V62.2z"/>
</g>
</svg>
