<?xml version="1.0" encoding="utf-8"?>
<!-- Generator: Adobe Illustrator 27.9.0, SVG Export Plug-In . SVG Version: 6.00 Build 0)  -->
<svg version="1.1" id="Layer_1" xmlns="http://www.w3.org/2000/svg" xmlns:xlink="http://www.w3.org/1999/xlink" x="0px" y="0px"
	 viewBox="0 0 128 128" style="enable-background:new 0 0 128 128;" xml:space="preserve">
<style type="text/css">
	.st0{fill-rule:evenodd;clip-rule:evenodd;fill:#99B8C6;}
	.st1{fill:#206982;}
</style>
<g>
	<rect x="5.2" y="5.1" class="st0" width="117.7" height="117.7"/>
	<path class="st1" d="M124.9,124.8H3.2V3.1h121.7C124.9,3.1,124.9,124.8,124.9,124.8z M7.2,120.8h113.7V7.1H7.2V120.8z"/>
</g>
<path class="st1" d="M100.9,28c-0.6,0-1.2,0.1-1.7,0.1c-2.3,0.3-4.7,0.9-7,1.7c-4.6,1.7-8.8,4.3-11.5,7c-2.9,2.9-4.4,6.5-4.3,10.2
	c0,3.2,1.2,6.4,3,9.5L74.9,61c-0.6,0.5-0.8,1.2-0.7,1.9c0.2,0.7,0.7,1.3,1.4,1.4c0.7,0.2,1.5-0.1,1.9-0.7l5.4-5.4
	c0.6-0.6,0.7-1.7,0.2-2.4c-2-3.1-3.1-6.1-3.1-8.8s0.9-5.2,3.2-7.5c2.1-2.1,6.1-4.6,10.2-6.1c2.6-1,5-1.3,7.3-1.4l-7.3,7.2
	c0,0,0,0.1-0.1,0.1c-2,2.3-2.1,5.7,0.1,7.8l10.3,10.3c0,0,0,0,0.1,0.1c2.3,2,5.7,2.1,7.8-0.1l7.3-7.3c-0.1,2.3-0.4,4.8-1.4,7.4
	c-1.5,4.1-4,8-6.1,10.1c-2.3,2.3-4.7,3.1-7.4,3.1c-2.7,0-5.8-1.1-9-3c-0.8-0.5-1.7-0.3-2.4,0.3l-3.1,3.1c-0.8,0.7-0.8,2,0,2.7
	c0.7,0.8,2,0.8,2.7,0l2.2-2.2c3.1,1.7,6.3,2.8,9.5,2.9c3.6,0.1,7.3-1.3,10.2-4.2c2.7-2.7,5.3-6.9,7-11.5s2.6-9.5,1.2-13.7
	c-0.2-0.6-0.7-1.1-1.4-1.3c-0.7-0.1-1.3,0.1-1.8,0.5L109,54.8c-0.5,0.5-1.7,0.6-2.5,0c0,0-0.1,0-0.1-0.1L96.3,44.6
	c-0.6-0.6-0.6-1.8,0.1-2.6l10.1-10.1c0.5-0.5,0.7-1.1,0.5-1.8c-0.2-0.6-0.6-1.2-1.3-1.4C104.3,28.1,102.7,27.9,100.9,28z M33.1,28.2
	c-0.4,0.1-0.8,0.2-1.1,0.5l-4.8,4.8c-0.6,0.6-0.8,1.6-0.3,2.4L35,50c0.4,0.7,1.2,1,1.9,0.9l4.2-0.7l26.2,26.2l-1,1
	c-2.1,2.1-2.1,5.6,0,7.7l1.3,1.4c1.5,1.5,3.7,1.5,5.5,0.9l3.3,3.2c-0.2,2.6,0.5,5.2,2.4,7.1l23.5,23.6c4.8,4.8,12.5,4.8,17.2,0
	c0,0,0,0,0-0.1c4.6-4.8,4.6-12.6,0-17.2L96.1,80.5c-1.9-1.9-4.5-2.5-7.1-2.4l-3.2-3.3c0.6-1.9,0.6-4-0.9-5.5L83.5,68
	c-1.1-1.1-2.5-1.6-3.9-1.6S76.8,67,75.7,68l-1,1l-26-26.3l0.7-4.2c0.1-0.8-0.2-1.5-0.9-1.9l-14.1-8.1c-0.3-0.2-0.7-0.3-1.1-0.2
	C33.2,28.2,33.1,28.2,33.1,28.2z M33.7,32.5l11.6,6.7l-0.6,3.9c-0.1,0.6,0.1,1.2,0.5,1.6L72,71.5l-2.1,2.1L43.2,46.9
	c-0.4-0.4-1-0.6-1.6-0.5L37.7,47L31,35.3L33.7,32.5z M79.7,70.2c0.4,0,0.9,0.1,1.1,0.4l1.3,1.4c0.6,0.6,0.6,1.6,0.1,2.2
	c-0.7,0.8-0.6,1.9,0.1,2.7l4.4,4.4c0.4,0.4,1.1,0.6,1.7,0.5c1.8-0.3,3.7,0.2,4.9,1.4l23.5,23.6c3.1,3.1,3.1,8.4,0,11.7
	c-3.3,3.3-8.4,3.3-11.7,0L81.6,94.9c-1.3-1.3-1.8-3.1-1.4-4.7c0.2-0.7,0-1.4-0.5-1.9L75.3,84c-0.7-0.7-1.9-0.8-2.7-0.1
	c-0.6,0.5-1.5,0.5-2.2-0.1L69,82.5c-0.6-0.6-0.6-1.7,0-2.3l9.5-9.5C78.8,70.3,79.3,70.2,79.7,70.2z M60.8,76
	c-0.4,0.1-0.8,0.3-1.1,0.6l-9.2,9.2c-1.3-0.3-2.6-0.5-3.9-0.5c-10.9,0-19.7,8.8-19.7,19.7s8.8,19.7,19.7,19.7s19.7-8.8,19.7-19.7
	c0-1.4-0.3-2.8-0.7-4.2l6.6-6.6c0.8-0.7,0.8-2,0-2.7c-0.7-0.8-2-0.8-2.7,0l-7.3,7.4c-0.6,0.5-0.7,1.3-0.5,2.1
	c0.5,1.3,0.7,2.6,0.7,4.2c0,8.8-7,15.8-15.8,15.8s-15.9-7-15.9-15.8s7.1-15.9,15.9-15.9c1.4,0,2.8,0.2,4.2,0.5
	c0.7,0.1,1.3-0.1,1.8-0.5l9.8-9.8c0.6-0.6,0.7-1.4,0.4-2.1s-1-1.2-1.8-1.2C60.9,76,60.8,76,60.8,76z M87.9,86.6l-2.8,2.8l23.2,23.2
	l2.8-2.8L87.9,86.6z M48.6,93.8c-0.1,0-0.2,0-0.3,0.1l-9,2.5c-0.6,0.2-1.1,0.7-1.3,1.3l-2.5,9c-0.2,0.7,0,1.4,0.5,1.9l6.8,6.8
	c0.5,0.5,1.2,0.7,1.9,0.5l9.3-2.5c0.7-0.2,1.2-0.7,1.4-1.4l2.3-9c0.2-0.7,0-1.4-0.5-1.9l-6.8-6.8C49.8,93.9,49.2,93.7,48.6,93.8z
	 M48.2,97.9l5.2,5.2l-1.7,6.9l-7.1,1.9l-5.2-5.2l1.9-6.9L48.2,97.9z"/>
</svg>
